
<svg xmlns="http://www.w3.org/2000/svg" version="1.1" xmlns:xlink="http://www.w3.org/1999/xlink" preserveAspectRatio="none" x="0px" y="0px" width="225px" height="184px" viewBox="0 0 225 184">
<defs>
<path id="Layer0_0_1_STROKES" stroke="#FFFFFF" stroke-width="9.4" stroke-linejoin="round" stroke-linecap="round" fill="none" d="
M 157.0480163574219 174.22821655273435
L 118.07828063964843 159.69331512451174
Q 104.35337371826171 152.53836364746095 90.85346527099608 140.92844238281248 83.51851501464847 134.58348541259767 74.60857543945315 132.37850036621091 66.19363250732425 129.0035232543945 67.94862060546876 118.47359466552734 70.82860107421874 109.2486572265625 78.97354583740236 110.01365203857421
L 109.61833801269535 121.6685729980469 56.65369720458983 48.274070739746094
Q 53.458718872070335 41.119119262695335 60.25367279052733 34.99916076660156 68.53361663818362 29.194200134277352 74.65357513427733 34.68416290283204
L 101.113395690918 70.32392120361328
Q 101.38339385986328 62.89897155761719 106.46835937500003 58.53400115966798 112.85831604003906 54.12403106689453 120.50826416015624 58.53400115966798
L 124.73823547363287 63.978964233398415
Q 123.25324554443358 56.959011840820324 129.4182037353516 50.97405242919922 135.26816406250003 46.92407989501953 142.87311248779298 50.97405242919922
L 147.86807861328128 57.274009704589844
Q 145.70809326171872 49.0390655517578 152.81804504394535 43.59410247802737 159.1630020141602 40.39912414550781 165.50795898437497 43.59410247802737
L 176.53288421630856 56.8690124511719 187.69280853271488 71.35891418457032
Q 192.8227737426758 79.59385833740237 194.93775939941412 87.82880249023435
L 203.08270416259762 115.63861389160155
Q 206.23268280029293 125.71854553222659 212.93763732910162 132.6934982299805
M 11.204005432128895 24.559231567382824
L 26.413902282714844 9.169335937499994 41.983796691894554 24.109234619140636
M 26.413902282714844 9.169335937499994
L 26.413902282714844 86.0288146972656
M 124.73823547363287 63.978964233398415
L 134.23317108154293 76.35388031005857
M 101.113395690918 70.32392120361328
L 115.96329498291018 90.2587860107422
M 147.86807861328128 57.274009704589844
L 157.49801330566407 69.4239273071289"/>
</defs>

<g transform="matrix( 0.899993896484375, 0, 0, 0.899993896484375, -135.45,-88.75) ">
<use xlink:href="#Layer0_0_1_STROKES" transform="matrix( 1.111114501953125, 0, 0, 1.111114501953125, 150.5,98.6) "/>
</g>
</svg>
