<svg width="12" height="11" viewBox="0 0 12 11" fill="none" xmlns="http://www.w3.org/2000/svg">
<path d="M5.4547 7.90909C6.20782 7.90909 6.81834 7.29856 6.81834 6.54545C6.81834 5.79233 6.20782 5.18181 5.4547 5.18181C4.70159 5.18181 4.09106 5.79233 4.09106 6.54545C4.09106 7.29856 4.70159 7.90909 5.4547 7.90909Z" fill="black"/>
<path d="M10.9091 1.09091V0.545455C10.9091 0.245455 10.6636 0 10.3636 0C10.0636 0 9.81818 0.245455 9.81818 0.545455V1.09091H9.27273C8.97273 1.09091 8.72727 1.33636 8.72727 1.63636C8.72727 1.93636 8.97273 2.18182 9.27273 2.18182H9.81818V2.72727C9.81818 3.02727 10.0636 3.27273 10.3636 3.27273C10.6636 3.27273 10.9091 3.02727 10.9091 2.72727V2.18182H11.4545C11.7545 2.18182 12 1.93636 12 1.63636C12 1.33636 11.7545 1.09091 11.4545 1.09091H10.9091ZM8.72727 3.27273H8.18182C7.88182 3.27273 7.63636 3.02727 7.63636 2.72727V1.09091H4.29818C3.99273 1.09091 3.69818 1.22182 3.49091 1.44545L2.82 2.18182H1.09091C0.490909 2.18182 0 2.67273 0 3.27273V9.81818C0 10.4182 0.490909 10.9091 1.09091 10.9091H9.81818C10.4182 10.9091 10.9091 10.4182 10.9091 9.81818V4.36364H9.27273C8.97273 4.36364 8.72727 4.11818 8.72727 3.81818V3.27273ZM5.45455 9C4.10182 9 3 7.89818 3 6.54545C3 5.19273 4.10182 4.09091 5.45455 4.09091C6.80727 4.09091 7.90909 5.19273 7.90909 6.54545C7.90909 7.89818 6.80727 9 5.45455 9Z" fill="black"/>
</svg>
