<svg width="12" height="9" viewBox="0 0 12 9" fill="none" xmlns="http://www.w3.org/2000/svg">
<path d="M6 2.37236V0.666283C5.99976 0.534529 5.95565 0.405785 5.87324 0.296277C5.79082 0.186769 5.67378 0.101398 5.53688 0.0509203C5.39997 0.000442888 5.24931 -0.0128813 5.1039 0.0126272C4.95849 0.0381357 4.82482 0.101335 4.71975 0.194261L0 4.33312L4.71975 8.47131C4.78924 8.53344 4.87186 8.58274 4.96286 8.61638C5.05386 8.65002 5.15144 8.66734 5.25 8.66734C5.34856 8.66734 5.44614 8.65002 5.53714 8.61638C5.62814 8.58274 5.71076 8.53344 5.78025 8.47131C5.84993 8.40944 5.90521 8.33596 5.94291 8.25508C5.98062 8.1742 6.00002 8.0875 6 7.99995V6.34054C8.0625 6.38588 10.3162 6.7179 12 9V8.3333C12 5.24449 9.375 2.70438 6 2.37236Z" fill="#161616"/>
</svg>
