<svg width="17" height="17" viewBox="0 0 17 17" fill="none" xmlns="http://www.w3.org/2000/svg">
<path d="M11.875 0C12.7038 0 13.4987 0.32924 14.0847 0.915291C14.6708 1.50134 15 2.2962 15 3.125V5.32125C13.7695 4.30337 12.2219 3.74757 10.625 3.75H13.75V3.125C13.75 2.62772 13.5525 2.15081 13.2008 1.79917C12.8492 1.44754 12.3723 1.25 11.875 1.25H3.125C2.62772 1.25 2.15081 1.44754 1.79917 1.79917C1.44754 2.15081 1.25 2.62772 1.25 3.125V3.75H10.625C9.15375 3.75 7.79 4.2125 6.67125 5H1.25V11.875C1.25 12.3723 1.44754 12.8492 1.79917 13.2008C2.15081 13.5525 2.62772 13.75 3.125 13.75H4.5C4.72875 14.1975 5.005 14.6163 5.32125 15H3.125C2.2962 15 1.50134 14.6708 0.915291 14.0847C0.32924 13.4987 0 12.7038 0 11.875V3.125C0 2.2962 0.32924 1.50134 0.915291 0.915291C1.50134 0.32924 2.2962 0 3.125 0H11.875Z" fill="black"/>
<path d="M16.25 10.625C16.25 11.3637 16.1045 12.0951 15.8218 12.7776C15.5391 13.4601 15.1248 14.0801 14.6025 14.6025C14.0801 15.1248 13.4601 15.5391 12.7776 15.8218C12.0951 16.1045 11.3637 16.25 10.625 16.25C9.88631 16.25 9.15486 16.1045 8.47241 15.8218C7.78995 15.5391 7.16985 15.1248 6.64752 14.6025C6.12519 14.0801 5.71086 13.4601 5.42818 12.7776C5.1455 12.0951 5 11.3637 5 10.625C5 9.13316 5.59263 7.70242 6.64752 6.64752C7.70242 5.59263 9.13316 5 10.625 5C12.1168 5 13.5476 5.59263 14.6025 6.64752C15.6574 7.70242 16.25 9.13316 16.25 10.625ZM10.625 12.975C10.4178 12.975 10.2191 13.0573 10.0726 13.2038C9.92606 13.3503 9.84375 13.549 9.84375 13.7563C9.84375 13.9635 9.92606 14.1622 10.0726 14.3087C10.2191 14.4552 10.4178 14.5375 10.625 14.5375C10.8322 14.5375 11.0309 14.4552 11.1774 14.3087C11.3239 14.1622 11.4062 13.9635 11.4062 13.7563C11.4062 13.549 11.3239 13.3503 11.1774 13.2038C11.0309 13.0573 10.8322 12.975 10.625 12.975ZM10.625 6.87875C9.315 6.87875 8.295 7.90125 8.30875 9.3225C8.31041 9.48826 8.37784 9.64657 8.49623 9.76261C8.61461 9.87865 8.77424 9.94291 8.94 9.94125C9.10576 9.93959 9.26407 9.87215 9.38011 9.75377C9.49615 9.63539 9.56041 9.47576 9.55875 9.31C9.55125 8.58625 10.0087 8.12875 10.625 8.12875C11.215 8.12875 11.6912 8.61875 11.6912 9.31625C11.6912 9.56875 11.6038 9.71 11.2413 9.99625L10.895 10.265C10.2625 10.77 10 11.1613 10 11.875C9.99971 12.0312 10.0579 12.1818 10.1631 12.2972C10.2684 12.4126 10.413 12.4845 10.5685 12.4986C10.7241 12.5127 10.8793 12.4681 11.0035 12.3735C11.1278 12.2789 11.2122 12.1412 11.24 11.9875L11.2538 11.7925C11.275 11.6075 11.3787 11.475 11.6862 11.2325L12.0325 10.9637C12.6738 10.4513 12.9412 10.0487 12.9412 9.31625C12.9412 7.93625 11.9138 6.87875 10.625 6.87875Z" fill="black"/>
</svg>
